<?xml version="1.0" encoding="UTF-8"?>
<svg version="1.1" xmlns="http://www.w3.org/2000/svg" width="960" height="1073">
<path d="M0 0 C0 171.27 0 342.54 0 519 C17.82 515.04 17.82 515.04 36 511 C42.6385508 509.56179505 49.27736407 508.12853333 55.921875 506.71875 C57.55197042 506.37159847 59.18203545 506.02430421 60.81207275 505.67687988 C64.95411154 504.79442503 69.09653912 503.91381071 73.23907471 503.03369141 C77.52552345 502.12261657 81.81156867 501.20964708 86.09765625 500.296875 C94.39806148 498.52947942 102.69888174 496.76404355 111 495 C110.99690857 493.91182067 110.99690857 493.91182067 110.99375468 492.80165792 C110.8729534 449.78771746 110.80954104 406.77401969 110.82046365 363.7599007 C110.82172613 358.59302628 110.82251002 353.42615189 110.82299805 348.25927734 C110.82310325 347.23066297 110.82320845 346.2020486 110.82331683 345.1422641 C110.82387852 328.49569988 110.78568615 311.84943935 110.73312465 295.20296779 C110.68003994 278.11703032 110.66871109 261.03143146 110.6959936 243.94543147 C110.71151185 233.40556809 110.6946171 222.86678667 110.63601431 212.3270705 C110.59892887 205.09562069 110.60247162 197.86489485 110.63765464 190.63343856 C110.65675354 186.46322797 110.65823536 182.29501795 110.61136436 178.12498283 C110.56877066 174.30015971 110.57765808 170.47890011 110.62604436 166.65417776 C110.63868515 164.62891541 110.59752944 162.60353281 110.55393249 160.5787003 C110.73096447 152.03104047 112.9347704 147.71723483 118.85001065 141.88030328 C120.22601411 140.57907756 121.61271638 139.2891928 123 138 C124.18276669 136.67364653 125.35059771 135.3333099 126.484375 133.96484375 C130.69005986 129.12280526 135.21741687 124.59654091 139.75048828 120.06420898 C141.23893237 118.57358385 142.71917277 117.07512983 144.19921875 115.57617188 C150.47355689 109.26547113 157.03649724 103.55430637 164 98 C165.10176066 97.06514091 166.19810568 96.1237989 167.28515625 95.171875 C181.76802509 82.54265041 197.65145596 72.03926633 214 62 C215.65708984 60.96939453 215.65708984 60.96939453 217.34765625 59.91796875 C223.72467799 56 223.72467799 56 226 56 C226 192.95 226 329.9 226 471 C234.58 469.02 243.16 467.04 252 465 C257.05711049 463.89251594 262.11266518 462.7951177 267.1784668 461.73046875 C268.50482342 461.44980772 269.83113433 461.16893058 271.1574049 460.88786316 C273.96362245 460.29362572 276.77014036 459.70083852 279.576931 459.10931396 C284.10552681 458.15491239 288.63337568 457.19699661 293.16116333 456.23876953 C299.65122191 454.86561251 306.14160276 453.49398897 312.63223267 452.12353516 C328.72502322 448.72556847 344.81628945 445.32039312 360.9075706 441.91528702 C363.4630541 441.37455213 366.01855861 440.83391663 368.57406807 440.29330444 C390.9840987 435.55230213 413.38996195 430.79238338 435.7890625 426 C437.02011782 425.73665863 438.25117313 425.47331726 439.51953316 425.20199585 C450.91088029 422.76492186 462.30157764 420.32484045 473.69112396 417.87936401 C477.72264793 417.0140954 481.7544903 416.15031739 485.78640366 415.28686523 C488.49970952 414.70514927 491.21252323 414.12117781 493.92532349 413.53710938 C495.52155888 413.19518538 497.11781975 412.85338033 498.71411133 412.51171875 C499.433175 412.35620041 500.15223867 412.20068207 500.89309216 412.04045105 C505.77208442 411 505.77208442 411 508 411 C508.36119287 419.19648124 507.27078076 426.9358363 505.875 435 C505.76229767 435.65538757 505.64959534 436.31077515 505.53347778 436.98602295 C502.09692329 456.87226629 497.53485385 476.0932652 491.1875 495.25 C490.94909393 495.97374817 490.71068787 496.69749634 490.46505737 497.44317627 C489.28773514 500.99337529 488.06421727 504.51557602 486.75410461 508.01901245 C485.49009942 511.46331299 484.48531074 514.90020245 483.56646729 518.4510498 C479.49513477 532.54815324 479.49513477 532.54815324 473.71300697 536.60433197 C466.73021655 539.82070948 459.1550592 540.87892456 451.62890625 542.140625 C449.12380224 542.63529086 446.62044307 543.13886336 444.11877441 543.65061951 C438.75335901 544.72937784 433.38207711 545.74958292 427.99563599 546.71737671 C420.21743763 548.11579068 412.46345141 549.62259986 404.71208751 551.16215122 C401.0995117 551.87961473 397.48618492 552.5932603 393.87266541 553.30595398 C393.14970144 553.44856291 392.42673748 553.59117184 391.68186551 553.73810226 C386.49688528 554.75851908 381.30821744 555.75859333 376.1174469 556.74909973 C355.16850064 560.74926785 334.28888295 565.0154011 313.4375 569.49609375 C312.77774044 569.63782493 312.11798088 569.77955611 311.43822861 569.92558217 C300.97834734 572.17347923 290.52081464 574.43233975 280.0625 576.6875 C253.7965625 582.2871875 253.7965625 582.2871875 227 588 C226.67 625.62 226.34 663.24 226 702 C231.28 700.68 236.56 699.36 242 698 C245.79544929 697.15038408 249.58705575 696.31853196 253.39355469 695.52416992 C254.9396621 695.19762059 254.9396621 695.19762059 256.51700401 694.8644743 C259.90138159 694.15035728 263.28662266 693.44042629 266.671875 692.73046875 C269.11259933 692.21619976 271.55326137 691.70163502 273.99386597 691.1867981 C279.19993654 690.08910525 284.40635354 688.99307968 289.61309814 687.89859009 C297.8317752 686.17088554 306.04955007 684.43891543 314.26708984 682.70581055 C314.95733081 682.56023779 315.64757177 682.41466503 316.35872912 682.26468098 C319.86895901 681.52434762 323.37917347 680.78394115 326.88937759 680.04348564 C329.72683824 679.44495762 332.56433091 678.84658176 335.40185165 678.2483387 C365.15137245 671.97608973 394.88987196 665.65264672 424.625 659.3125 C426.87316799 658.83319662 429.12133693 658.35389766 431.36950684 657.87460327 C435.68210237 656.9551699 439.99468128 656.03565864 444.30725098 655.11610413 C448.34292549 654.25562311 452.3786502 653.39537825 456.41442871 652.53538513 C457.84491798 652.23055096 457.84491798 652.23055096 459.30430603 651.91955853 C461.17764431 651.52035711 463.05098612 651.12117223 464.92433167 650.72200489 C470.20955325 649.59559733 475.49428309 648.46691991 480.77858162 647.33619022 C483.92616816 646.66299858 487.07408527 645.99136299 490.22208786 645.32011986 C491.65518977 645.0141523 493.08813935 644.70747026 494.52092361 644.40001869 C496.44243076 643.98774819 498.36450863 643.57814027 500.28662109 643.16870117 C501.88284805 642.82726326 501.88284805 642.82726326 503.51132202 642.47892761 C506 642 506 642 508 642 C508.36119287 650.19648124 507.27078076 657.9358363 505.875 666 C505.76229767 666.65538757 505.64959534 667.31077515 505.53347778 667.98602295 C502.09692329 687.87226629 497.53485385 707.0932652 491.1875 726.25 C490.94909393 726.97374817 490.71068787 727.69749634 490.46505737 728.44317627 C489.28832579 731.99159417 488.06686619 735.51378371 486.76205444 739.01719666 C485.4971102 742.46761142 484.45889602 745.92199883 483.49491882 749.46739197 C479.26602319 763.58686378 479.26602319 763.58686378 473.88007927 767.56632614 C467.51760186 770.63068821 460.5747579 771.55483295 453.6640625 772.67578125 C451.34385421 773.12771281 449.02539494 773.5887014 446.70861816 774.0579071 C441.02875644 775.18707166 435.3376422 776.22789641 429.63488078 777.23435229 C422.15990743 778.56040658 414.71351905 780.02730208 407.26513672 781.49414062 C404.43001376 782.05084529 401.59468219 782.60647939 398.75924683 783.16159058 C398.04621419 783.30125114 397.33318155 783.44091171 396.59854186 783.58480442 C391.424229 784.59624001 386.24633528 785.58788393 381.06668091 786.57156372 C358.42833296 790.87619517 335.87534503 795.52442783 313.34375 800.35546875 C312.51397676 800.53328557 311.68420351 800.7111024 310.82928562 800.89430761 C302.44103955 802.69218513 294.05388393 804.49510166 285.66752648 806.30176699 C274.8488432 808.63217814 264.02652206 810.945196 253.20214844 813.24902344 C251.98570058 813.50793558 251.98570058 813.50793558 250.74467802 813.77207828 C246.69905361 814.63306385 242.65336572 815.49375066 238.60764313 816.35427475 C233.87405638 817.36118316 229.14070279 818.36918426 224.40740967 819.37747192 C199.13531654 824.76078395 173.86089801 830.1330824 148.58290863 835.48864746 C145.89718714 836.05779816 143.21155119 836.62735082 140.52593994 837.19702148 C136.48898136 838.0532765 132.45181183 838.90852845 128.41443634 839.76281548 C126.98678961 840.06503231 125.55921079 840.36757014 124.13170624 840.67045784 C122.24018766 841.07170701 120.34837536 841.4715709 118.45654297 841.87133789 C116.89611771 842.20168785 116.89611771 842.20168785 115.3041687 842.53871155 C113 843 113 843 112 843 C112 766.77 112 690.54 112 612 C94.18 615.96 94.18 615.96 76 620 C69.3614492 621.43820495 62.72263593 622.87146667 56.078125 624.28125 C54.44802958 624.62840153 52.81796455 624.97569579 51.18792725 625.32312012 C47.04588846 626.20557497 42.90346088 627.08618929 38.76092529 627.96630859 C34.47447655 628.87738343 30.18843133 629.79035292 25.90234375 630.703125 C17.60193852 632.47052058 9.30111826 634.23595645 1 636 C0.99761165 636.68984608 0.99522329 637.37969215 0.99276257 638.09044266 C0.93348447 654.91868346 0.85785313 671.74676463 0.76428509 688.57484818 C0.71942472 696.7129715 0.67998787 704.85105201 0.65356445 712.98925781 C0.63050498 720.08707229 0.59701911 727.18475018 0.55129844 734.28245616 C0.52747274 738.03652226 0.50867454 741.79045398 0.50238609 745.54459381 C0.49628652 749.08725675 0.47611413 752.62957634 0.44572449 756.17211151 C0.43291136 758.07344044 0.43450079 759.9748499 0.4367218 761.8762207 C0.2334196 780.69857518 -7.6322265 793.99778401 -18.125 809.125 C-19.3565498 810.9172386 -20.58551262 812.711234 -21.81436157 814.50532532 C-22.71126815 815.81463061 -23.60889125 817.12344532 -24.50717163 818.43180847 C-31.02515625 827.93327532 -37.44125089 837.50391127 -43.875 847.0625 C-47.99876954 853.18878444 -52.12586669 859.31277341 -56.26293945 865.43008423 C-57.43883482 867.16977721 -58.61343983 868.91034295 -59.78686523 870.65170288 C-61.52819882 873.23420679 -63.27513716 875.81283392 -65.0234375 878.390625 C-65.79951859 879.54480675 -65.79951859 879.54480675 -66.59127808 880.7223053 C-71.15347358 887.42693112 -76.22487489 893.30483816 -82 899 C-82.73476563 899.73347656 -83.46953125 900.46695313 -84.2265625 901.22265625 C-96.70280294 912.99569041 -112.85617909 920.58740498 -129.45678711 924.36889648 C-130.81552523 924.6850688 -130.81552523 924.6850688 -132.20171261 925.00762844 C-143.50120949 927.61411039 -154.84642159 930.01139439 -166.19140625 932.41015625 C-168.64791022 932.93157982 -171.10436527 933.45323388 -173.56077576 933.97509766 C-178.81533963 935.09090023 -184.07023076 936.20514031 -189.32543945 937.31790161 C-196.97845285 938.9383934 -204.63082944 940.56187638 -212.28306699 942.18602741 C-224.79782824 944.84215044 -237.31306862 947.49600854 -249.82861328 950.1484375 C-261.92620699 952.71230273 -274.02356693 955.2772665 -286.12060547 957.84375 C-286.86528403 958.0017395 -287.60996258 958.15972901 -288.37720716 958.32250607 C-292.86980922 959.27565947 -297.36240152 960.22885889 -301.85499072 961.18207288 C-308.5034943 962.59271074 -315.15201259 964.00327921 -321.80053711 965.41381836 C-322.52130294 965.56673588 -323.24206878 965.71965339 -323.984676 965.87720478 C-333.77789353 967.95491002 -343.57124659 970.03197514 -353.36473572 972.10839975 C-355.35940979 972.53133226 -357.35407217 972.95431988 -359.34873104 973.3773241 C-365.73110819 974.73078431 -372.1136237 976.08358605 -378.4964447 977.43495178 C-390.35588643 979.94686925 -402.21216442 982.47230159 -414.0625 985.02685547 C-417.33896696 985.73123972 -420.61551398 986.43525026 -423.89208984 987.13912773 C-426.91455987 987.79018934 -429.93579891 988.44675419 -432.95703125 989.10353088 C-434.76296038 989.49174657 -436.56894643 989.87969762 -438.375 990.26733398 C-439.18332275 990.44493948 -439.99164551 990.62254498 -440.82446289 990.80553246 C-444.60411418 991.61078488 -448.12969059 992.21373557 -452 992 C-452.40868775 983.2082294 -450.90312022 974.75704243 -449.4375 966.125 C-449.30339722 965.3286615 -449.16929443 964.532323 -449.03112793 963.71185303 C-445.16199215 940.93244417 -439.25359332 918.83395267 -431.4375 897.09375 C-429.53941011 891.80417818 -428.12973393 886.63619915 -427.171875 881.09960938 C-425.49088448 876.32321281 -423.75347725 872.50311143 -420 869 C-415.17378974 866.91235052 -410.17866757 866.0729713 -405.03515625 865.15234375 C-403.44666528 864.83781388 -401.8589721 864.51923334 -400.27201843 864.19703674 C-396.75931637 863.48825783 -393.24342801 862.79941694 -389.7244873 862.12231445 C-383.75393688 860.96396041 -377.80567099 859.7093496 -371.85839844 858.4375 C-370.80318151 858.21199274 -369.74796457 857.98648548 -368.66077137 857.75414467 C-366.46377981 857.28448433 -364.26681639 856.81469232 -362.06987953 856.34477615 C-356.19796587 855.09277923 -350.32241955 853.85808178 -344.44702148 852.62255859 C-341.95913105 852.09904749 -339.47124661 851.57550786 -336.98336792 851.05194092 C-335.72556896 850.78726768 -334.46777 850.52259445 -333.17185593 850.24990082 C-321.02762434 847.69351994 -308.88473962 845.13075092 -296.7421875 842.56640625 C-295.68705039 842.34360394 -295.68705039 842.34360394 -294.61059737 842.11630058 C-269.98492076 836.91601072 -245.36917686 831.66992577 -220.7578125 826.40234375 C-219.07271789 826.04172859 -217.38762305 825.68111444 -215.702528 825.32050133 C-200.02546125 821.96537535 -184.34898208 818.60751584 -168.67371845 815.24397522 C-162.48530681 813.91615365 -156.29661812 812.58962874 -150.10772896 811.26403469 C-145.81614547 810.34470995 -141.52495855 809.42356349 -137.23407465 808.50097924 C-134.01829144 807.81008104 -130.80195023 807.12179521 -127.58569336 806.43310547 C-126.42998998 806.18402152 -125.27428659 805.93493757 -124.0835619 805.67830563 C-123.03879027 805.45509923 -121.99401865 805.23189283 -120.91758728 805.00192261 C-120.00990569 804.80708723 -119.1022241 804.61225185 -118.16703701 804.41151237 C-116 804 -116 804 -114 804 C-114 756.48 -114 708.96 -114 660 C-122.58 661.98 -131.16 663.96 -140 666 C-145.0571105 667.10748406 -150.112665 668.20488313 -155.1784668 669.26953125 C-156.50483198 669.55019239 -157.83115148 669.83106953 -159.15743065 670.11213684 C-161.96365706 670.70637293 -164.77018374 671.29915932 -167.5769825 671.89068604 C-172.10542923 672.84506218 -176.63312072 673.8029913 -181.16075134 674.76123047 C-187.6506673 676.13441253 -194.14090646 677.50605661 -200.63140869 678.87646484 C-216.72805401 682.27514701 -232.82350496 685.67947762 -248.91876507 689.08471298 C-251.47479067 689.62545155 -254.03083921 690.16608162 -256.58689117 690.70669556 C-278.95941729 695.43893382 -301.32566714 700.19926168 -323.68359375 705 C-326.1403288 705.52712889 -328.59707002 706.05422905 -331.05381775 706.58129883 C-341.18533104 708.75550428 -351.31624145 710.93237802 -361.4447298 713.12063599 C-365.46309997 713.9878094 -369.48231857 714.85099752 -373.50177193 715.71313477 C-375.33229013 716.10676038 -377.16241707 716.50221085 -378.9921093 716.8996582 C-381.45161582 717.43382727 -383.91237165 717.96180844 -386.37353516 718.48828125 C-387.081813 718.64379959 -387.79009085 718.79931793 -388.51983166 718.95954895 C-392.0712299 719.71212029 -395.36807234 720.16959696 -399 720 C-398.37478285 687.09084299 -388.83574259 653.2744452 -377.3359375 622.59765625 C-375.51339132 617.71004692 -374.2426548 613.03384316 -373.51806641 607.86889648 C-372.05709795 603.48239662 -370.49594776 600.12923336 -367 597 C-362.29192343 595.02868792 -357.40374496 594.20422917 -352.41015625 593.2890625 C-350.83487341 592.97333013 -349.26032534 592.65391446 -347.68644714 592.33125305 C-344.12696716 591.60521101 -340.56449295 590.8968563 -336.99963379 590.19772339 C-330.51152472 588.91485562 -324.04511823 587.53611879 -317.57910156 586.14672852 C-316.39957035 585.89341231 -315.22003914 585.64009611 -314.00476456 585.37910366 C-311.5462307 584.85098145 -309.08772108 584.32274636 -306.62923431 583.79440498 C-300.1007015 582.39500408 -293.56888241 581.01113121 -287.03710938 579.62695312 C-285.68536478 579.34038116 -284.333623 579.05379594 -282.981884 578.76719761 C-280.26906763 578.19204876 -277.55623174 577.61699207 -274.84338379 577.04199219 C-264.38231142 574.8245754 -253.92193488 572.60387666 -243.46148908 570.38350642 C-240.76394735 569.81091837 -238.06638801 569.23841351 -235.36881697 568.66596353 C-210.35022535 563.35631372 -185.33729083 558.02029062 -160.32550597 552.67867875 C-155.18957382 551.5818709 -150.05359741 550.48527032 -144.91762543 549.38864899 C-134.94504185 547.25929488 -124.97250482 545.12972291 -115 543 C-115.00130151 542.05372683 -115.00260303 541.10745365 -115.00394398 540.13250554 C-115.08027381 484.058578 -115.10911446 427.98478947 -115.07740569 371.91081394 C-115.07361124 365.17914957 -115.0702588 358.44748502 -115.06713867 351.71582031 C-115.06666166 350.71100514 -115.06666166 350.71100514 -115.066175 349.68589068 C-115.05607692 327.97841823 -115.07515849 306.27109078 -115.10939364 284.56364677 C-115.14541776 261.6212779 -115.14814697 238.67906687 -115.11582941 215.73668182 C-115.09754563 201.99402702 -115.10587242 188.25191584 -115.14815276 174.50931172 C-115.17459627 165.08766481 -115.16799233 155.66640354 -115.13534261 146.24477752 C-115.11747755 140.8073604 -115.11423933 135.37096473 -115.15022469 129.93361473 C-115.18286177 124.95357414 -115.1739201 119.97538759 -115.13215785 114.99543117 C-115.12435999 113.19580301 -115.13171224 111.39603067 -115.15590347 109.59654821 C-115.34509344 94.49745802 -115.34509344 94.49745802 -109.62920284 88.08994865 C-108.10958323 86.70054411 -106.56834763 85.33415684 -105 84 C-103.91421944 82.79134888 -102.84653448 81.56570774 -101.8125 80.3125 C-92.91713286 70.14048295 -83.73012673 60.31560837 -73.57470703 51.38769531 C-71.91310556 49.92342512 -70.26734968 48.44242781 -68.62109375 46.9609375 C-15.960488 0 -15.960488 0 0 0 Z " fill="#221E1F" transform="translate(452,0)"/>
<path d="M0 0 C0.36249417 8.21534999 -0.7313574 15.97885196 -2.125 24.0625 C-2.23637299 24.71617554 -2.34774597 25.36985107 -2.4624939 26.04333496 C-7.10552277 53.16115443 -14.44005649 79.48450404 -24.25 105.1875 C-24.8682666 106.80869751 -24.8682666 106.80869751 -25.49902344 108.46264648 C-27.74781073 114.21547479 -27.74781073 114.21547479 -29 117 C-29.6690612 118.72026398 -29.6690612 118.72026398 -30.35163879 120.47528076 C-32.36432232 123.9162209 -34.27628272 124.76183208 -38.07493591 125.81678772 C-40.24980107 126.29624124 -42.43202928 126.74296832 -44.61889648 127.16430664 C-45.81999715 127.42013519 -47.02109781 127.67596375 -48.25859547 127.93954468 C-51.58777686 128.64259929 -54.92043997 129.31882862 -58.25717831 129.98444295 C-61.84799589 130.70758389 -65.4315464 131.46516791 -69.01605225 132.21885681 C-75.22197983 133.5190253 -81.43193601 134.79817128 -87.64511108 136.06323242 C-96.67435807 137.90198341 -105.69645018 139.77399812 -114.71678984 141.65590787 C-118.91679506 142.53214717 -123.1170378 143.40724528 -127.31733704 144.28207397 C-128.15688932 144.4569419 -128.99644161 144.63180983 -129.86143488 144.81197679 C-135.88629735 146.06617616 -141.9124064 147.31426877 -147.93913269 148.55947876 C-171.16822363 153.359708 -194.38027319 158.23461482 -217.578125 163.18359375 C-218.35075345 163.34839823 -219.12338191 163.51320272 -219.91942334 163.68300128 C-226.83687318 165.15862024 -233.75411061 166.63523254 -240.67104435 168.11326885 C-251.10238377 170.34223377 -261.53493906 172.56542039 -271.96850586 174.78393555 C-273.04691319 175.01324632 -273.04691319 175.01324632 -274.14710653 175.24718964 C-277.71575391 176.00599188 -281.28442303 176.76469182 -284.85310555 177.52332878 C-291.62662669 178.96327887 -298.40000747 180.40388879 -305.17333984 181.84472656 C-307.07975235 182.25025961 -307.07975235 182.25025961 -309.02467823 182.66398525 C-317.9913944 184.57176862 -326.95731588 186.48325567 -335.92279911 188.39682388 C-342.99649902 189.90650004 -350.070818 191.41324127 -357.14581966 192.91680527 C-361.58598848 193.86058059 -366.02528627 194.80829626 -370.46384716 195.7596035 C-373.62087403 196.43492137 -376.7792705 197.1037702 -379.9375 197.7734375 C-381.01634964 198.00614349 -382.09519928 198.23884949 -383.20674133 198.47860718 C-384.17879013 198.68337677 -385.15083893 198.88814636 -386.15234375 199.09912109 C-387.3897229 199.36310196 -387.3897229 199.36310196 -388.65209961 199.63241577 C-391.13703043 200.02145331 -393.48886212 200.06435506 -396 200 C-393.09825381 164.44278178 -383.88269854 130.48760497 -372 97 C-371.62020996 95.91960449 -371.24041992 94.83920898 -370.84912109 93.72607422 C-369.8758463 91.0087342 -368.85913652 88.3147864 -367.8125 85.625 C-367.54066895 84.87114014 -367.26883789 84.11728027 -366.98876953 83.34057617 C-365.40283476 79.48672717 -364.3343305 78.14899409 -360.48857117 76.43513489 C-355.75413442 74.81324979 -350.93431984 73.75644493 -346.03833008 72.7487793 C-345.0608613 72.54227721 -344.08339252 72.33577513 -343.07630348 72.1230154 C-339.80858949 71.43418163 -336.53908152 70.75427868 -333.26953125 70.07421875 C-330.9110141 69.5787037 -328.55262406 69.08258332 -326.1943512 68.58590698 C-321.09397887 67.51285435 -315.99285543 66.44345374 -310.89105225 65.37722778 C-302.69953452 63.66511156 -294.50998259 61.94370896 -286.32080078 60.22045898 C-284.909592 59.92352806 -283.4983829 59.62659871 -282.08717346 59.32967091 C-279.94264492 58.87844218 -277.79811895 58.42720132 -275.65360212 57.97591692 C-271.26078131 57.051557 -266.86781892 56.12787334 -262.47474813 55.2047022 C-230.68120343 48.52338333 -198.90359185 41.76767058 -167.12822253 35.00051934 C-160.39131141 33.56582616 -153.6541658 32.13223604 -146.91699886 30.69874477 C-120.19173245 25.01228643 -93.46780988 19.31970595 -66.7506218 13.59538841 C-63.47212159 12.89301826 -60.1935479 12.19099229 -56.91494751 11.48908997 C-54.8334336 11.04343332 -52.75192112 10.59777001 -50.67041016 10.15209961 C-49.67165674 9.93826409 -48.67290333 9.72442858 -47.64388466 9.5041132 C-41.90339901 8.27470625 -36.16355852 7.04234221 -30.42422867 5.80755138 C-27.00499147 5.0724812 -23.58524728 4.3397924 -20.1653595 3.60775566 C-18.61329186 3.27494957 -17.06145524 2.94106393 -15.50987244 2.60600471 C-13.43148035 2.15725605 -11.35233323 1.71219216 -9.27294922 1.26806641 C-7.54925613 0.89749619 -7.54925613 0.89749619 -5.79074097 0.5194397 C-3 0 -3 0 0 0 Z " fill="#221E1F" transform="translate(960,873)"/>
</svg>
